<?xml version="1.0" encoding="UTF-8"?>
<svg xmlns="http://www.w3.org/2000/svg" xmlns:xlink="http://www.w3.org/1999/xlink" width="480pt" height="480pt" viewBox="0 0 480 480" version="1.1">
<g id="surface792336">
<path style=" stroke:none;fill-rule:nonzero;fill:rgb(100%,100%,100%);fill-opacity:1;" d="M 240 20 C 173.523438 20 120 73.523438 120 140 L 120 160 C 98 160 80 178 80 200 L 80 400 C 80 422 98 440 120 440 L 360 440 C 382 440 400 422 400 400 L 400 200 C 400 178 382 160 360 160 L 360 140 C 360 73.523438 306.476562 20 240 20 Z M 240 60 C 285.523438 60 320 94.476562 320 140 L 320 160 L 160 160 L 160 140 C 160 94.476562 194.476562 60 240 60 Z M 240 260 C 262 260 280 278 280 300 C 280 322 262 340 240 340 C 218 340 200 322 200 300 C 200 278 218 260 240 260 Z M 240 260 "/>
</g>
</svg>
