<?xml version="1.0" encoding="UTF-8"?>
<svg xmlns="http://www.w3.org/2000/svg" xmlns:xlink="http://www.w3.org/1999/xlink" width="480pt" height="480pt" viewBox="0 0 480 480" version="1.1">
<g id="surface860784">
<path style=" stroke:none;fill-rule:nonzero;fill:rgb(0%,0%,0%);fill-opacity:1;" d="M 140 100 C 62.679688 100 0 162.679688 0 240 C 0 317.320312 62.679688 380 140 380 C 203.414062 380 256.921875 337.820312 274.140625 280 L 360 280 L 360 340 L 440 340 L 440 280 L 480 280 L 480 200 L 274.140625 200 C 256.921875 142.179688 203.414062 100 140 100 Z M 140 180 C 173.140625 180 200 206.859375 200 240 C 200 273.140625 173.140625 300 140 300 C 106.859375 300 80 273.140625 80 240 C 80 206.859375 106.859375 180 140 180 Z M 140 180 "/>
</g>
</svg>
